<svg xmlns="http://www.w3.org/2000/svg" width="22" height="24" fill="none" viewBox="0 0 22 24">
    <path fill="#000" d="M18.48 10.622c.14-.502.22-1.05.22-1.622 0-2.484-1.478-4.5-3.3-4.5-.677 0-1.31.281-1.832.76-.952-2.25-2.73-3.76-4.768-3.76-3.039 0-5.5 3.356-5.5 7.5 0 .127.003.253.007.38C1.382 10.303 0 12.806 0 15.75c0 3.727 2.217 6.75 4.95 6.75H17.6c2.43 0 4.4-2.686 4.4-6 0-2.902-1.512-5.325-3.52-5.878zM13.523 13.5h-2.248v5.25c0 .413-.248.75-.55.75h-1.65c-.302 0-.55-.337-.55-.75V13.5H6.277c-.492 0-.736-.806-.389-1.28l3.624-4.94c.213-.29.563-.29.776 0l3.624 4.94c.347.474.1 1.28-.389 1.28z"/>
</svg>
